<svg width="51" height="50" viewBox="0 0 51 50" fill="none" xmlns="http://www.w3.org/2000/svg">
<path fill-rule="evenodd" clip-rule="evenodd" d="M50.2326 25C50.2326 32.8676 46.5814 39.8863 40.8736 44.469L25.1163 3.95101L9.35894 44.469C3.65117 39.8863 0 32.8676 0 25C0 11.1929 11.2449 0 25.1163 0C38.9876 0 50.2326 11.1929 50.2326 25ZM25.1163 15.4932L37.3143 46.8589C33.7026 48.86 29.5432 50 25.1163 50C20.6894 50 16.53 48.86 12.9183 46.8589L25.1163 15.4932ZM24.4186 20.8333V27.5463H25.814V20.8333H24.4186ZM24.4186 31.4815V37.963H25.814V31.4815H24.4186ZM24.4186 43.287V48.6111H25.814V43.287H24.4186Z" fill="rgb(29 78 216)"/>
</svg>
